<svg width="77" height="61" viewBox="0 0 77 61" fill="none" xmlns="http://www.w3.org/2000/svg">
<path id="Vector" fill-rule="evenodd" clip-rule="evenodd" d="M58.2756 47.1013C58.7628 47.348 59.2204 47.6564 59.6338 48.0264C60.0471 48.3965 60.3965 48.8106 60.6672 49.2423C60.9428 48.8062 61.2872 48.3965 61.7006 48.0264C62.114 47.6564 62.5716 47.348 63.0588 47.1013C62.5716 46.8546 62.114 46.5463 61.7006 46.1762C61.2872 45.8062 60.9428 45.3965 60.6672 44.9604C60.3916 45.3965 60.0471 45.8062 59.6338 46.1762C59.2204 46.5463 58.7628 46.8546 58.2756 47.1013ZM54.7964 7.61234C55.7413 7.61234 56.504 8.29516 56.504 9.14097C56.504 9.98678 55.7413 10.674 54.7964 10.674C53.8516 10.674 53.0888 9.98678 53.0888 9.14097C53.0888 8.29516 53.8516 7.61234 54.7964 7.61234ZM39.6299 51.4538C40.5747 51.4538 41.3375 52.1366 41.3375 52.9824C41.3375 53.8282 40.5698 54.511 39.6299 54.511C38.69 54.511 37.9223 53.8282 37.9223 52.9824C37.9223 52.1366 38.69 51.4538 39.6299 51.4538ZM23.361 19.185C24.5913 19.185 25.5903 20.0793 25.5903 21.1806C25.5903 22.2819 24.5913 23.1762 23.361 23.1762C22.1308 23.1762 21.1318 22.2819 21.1318 21.1806C21.1318 20.0793 22.1308 19.185 23.361 19.185ZM32.711 9.26872C33.1883 9.51101 33.6361 9.81057 34.0445 10.1762C34.453 10.5374 34.7876 10.9427 35.0583 11.37C35.3289 10.9427 35.6636 10.5419 36.072 10.1762C36.4804 9.81057 36.9283 9.51101 37.4056 9.26872C36.9283 9.02643 36.4804 8.72687 36.072 8.36123C35.6636 7.99559 35.3289 7.59471 35.0583 7.1674C34.7876 7.59471 34.453 7.99559 34.0445 8.36123C33.6361 8.72687 33.1883 9.02643 32.711 9.26872ZM59.7912 27.326C60.5442 25.5859 60.1652 23.6432 58.8907 22.2335C56.7747 19.8943 53.0052 19.7974 50.4315 21.837C48.3598 23.4758 45.0922 26.9075 41.6327 28.7753C40.3434 29.4714 40.5944 29.8678 41.2095 29.9868C42.115 30.163 45.4711 28.6079 44.5312 30.2863C43.5716 31.7621 40.6485 33.7974 38.316 34.9031C36.5198 35.7533 36.6527 36.2643 38.2618 36.1498C43.2813 35.7841 57.8081 31.9163 59.7912 27.3304V27.326ZM43.7931 1C61.8581 1 76.4981 14.1101 76.4981 30.2775C76.4981 46.4449 61.8531 59.5551 43.7931 59.5551C34.5859 59.5551 26.2694 56.1498 20.3248 50.6696C8.34214 49.7004 1.08366 44.7049 1 38.9207C10.1481 50.5066 35.1272 43.5771 44.4033 38.6256C47.8775 36.7665 47.6413 39.8018 45.1267 42.0485C41.3818 45.4009 36.6625 46.3392 37.8879 47.1101C39.1132 47.8811 47.8283 45.6256 55.4657 40.9824C68.2603 33.2026 68.9246 23.837 64.0774 18.6079C59.555 13.7313 49.403 11.6476 39.5954 21.022C32.6568 27.652 26.8304 30.793 22.0028 33.0485C19.129 34.3921 20.9891 34.8767 22.7754 34.8414C23.8384 34.8194 26.4662 34.5859 28.4838 33.9207C31.648 32.8811 31.2248 35.0397 29.222 36.3216C24.3206 39.4582 11.0831 43.5683 11.0831 30.2775C11.0881 14.1101 25.7281 1 43.7931 1Z" fill="url(#paint0_linear_30_1145)" stroke="url(#paint1_linear_30_1145)" stroke-miterlimit="10"/>
<defs>
<linearGradient id="paint0_linear_30_1145" x1="1" y1="30.2775" x2="76.4981" y2="30.2775" gradientUnits="userSpaceOnUse">
<stop offset="0.26" stop-color="#971B1E"/>
<stop offset="0.51" stop-color="#B9351F"/>
<stop offset="0.83" stop-color="#E15521"/>
<stop offset="1" stop-color="#F16122"/>
</linearGradient>
<linearGradient id="paint1_linear_30_1145" x1="0.744108" y1="30.2775" x2="76.7441" y2="30.2775" gradientUnits="userSpaceOnUse">
<stop stop-color="#A21D21"/>
<stop offset="0.78" stop-color="#F16122"/>
</linearGradient>
</defs>
</svg>
