<svg width="19" height="19" viewBox="0 0 19 19" fill="none" xmlns="http://www.w3.org/2000/svg">
<g id="clarity:search-line" clip-path="url(#clip0_30_1151)">
<path id="Vector" d="M8.61856 2.66544C9.7618 2.6644 10.8797 3.00245 11.8307 3.63684C12.7818 4.27123 13.5234 5.17344 13.9616 6.22936C14.3998 7.28527 14.515 8.44743 14.2926 9.56883C14.0702 10.6902 13.5202 11.7205 12.7122 12.5292C11.9042 13.338 10.8744 13.8889 9.75324 14.1123C8.63205 14.3358 7.46978 14.2216 6.41347 13.7844C5.35716 13.3471 4.45426 12.6064 3.819 11.6559C3.18375 10.7054 2.84467 9.58784 2.84467 8.44461C2.8516 6.91493 3.46198 5.44979 4.54314 4.36764C5.62431 3.28548 7.08889 2.67377 8.61856 2.66544ZM8.61856 1.5835C7.26156 1.5835 5.93504 1.98589 4.80673 2.7398C3.67843 3.49371 2.79902 4.56527 2.27972 5.81897C1.76042 7.07268 1.62455 8.45222 1.88928 9.78314C2.15402 11.1141 2.80748 12.3366 3.76702 13.2961C4.72657 14.2557 5.9491 14.9091 7.28002 15.1739C8.61095 15.4386 9.99049 15.3027 11.2442 14.7834C12.4979 14.2641 13.5695 13.3847 14.3234 12.2564C15.0773 11.1281 15.4797 9.80161 15.4797 8.44461C15.4797 6.62493 14.7568 4.87978 13.4701 3.59307C12.1834 2.30636 10.4382 1.5835 8.61856 1.5835Z" fill="#555555"/>
<path id="Vector_2" d="M18.4722 17.5699L14.5825 13.6538L13.833 14.398L17.7227 18.3141C17.7716 18.3633 17.8297 18.4024 17.8936 18.4292C17.9576 18.4559 18.0262 18.4698 18.0956 18.4701C18.1649 18.4703 18.2336 18.4569 18.2978 18.4306C18.362 18.4043 18.4203 18.3656 18.4695 18.3167C18.5187 18.2679 18.5578 18.2098 18.5846 18.1458C18.6114 18.0818 18.6253 18.0132 18.6255 17.9439C18.6258 17.8745 18.6124 17.8058 18.586 17.7416C18.5597 17.6775 18.521 17.6191 18.4722 17.5699Z" fill="#555555"/>
</g>
<defs>
<clipPath id="clip0_30_1151">
<rect width="19" height="19" fill="white"/>
</clipPath>
</defs>
</svg>
