<svg width="100" height="38" viewBox="0 0 100 38" fill="none" xmlns="http://www.w3.org/2000/svg">
<rect width="100" height="38"/>
<path fill-rule="evenodd" clip-rule="evenodd" d="M32.8627 29.3434C33.1338 29.495 33.3883 29.6846 33.6183 29.9121C33.8483 30.1396 34.0426 30.3942 34.1932 30.6596C34.3465 30.3915 34.5381 30.1396 34.7681 29.9121C34.998 29.6846 35.2526 29.495 35.5237 29.3434C35.2526 29.1917 34.998 29.0021 34.7681 28.7746C34.5381 28.5471 34.3465 28.2952 34.1932 28.0271C34.0399 28.2952 33.8483 28.5471 33.6183 28.7746C33.3883 29.0021 33.1338 29.1917 32.8627 29.3434ZM30.9273 5.0653C31.4529 5.0653 31.8772 5.4851 31.8772 6.00512C31.8772 6.52513 31.4529 6.94764 30.9273 6.94764C30.4016 6.94764 29.9773 6.52513 29.9773 6.00512C29.9773 5.4851 30.4016 5.0653 30.9273 5.0653ZM22.49 32.0193C23.0156 32.0193 23.44 32.4391 23.44 32.9591C23.44 33.4791 23.0129 33.8989 22.49 33.8989C21.9671 33.8989 21.5401 33.4791 21.5401 32.9591C21.5401 32.4391 21.9671 32.0193 22.49 32.0193ZM13.4396 12.1803C14.124 12.1803 14.6797 12.7301 14.6797 13.4072C14.6797 14.0843 14.124 14.6341 13.4396 14.6341C12.7552 14.6341 12.1995 14.0843 12.1995 13.4072C12.1995 12.7301 12.7552 12.1803 13.4396 12.1803ZM18.641 6.08366C18.9065 6.23262 19.1557 6.41679 19.3829 6.64159C19.6101 6.86368 19.7962 7.11285 19.9468 7.37556C20.0974 7.11285 20.2835 6.86639 20.5108 6.64159C20.738 6.41679 20.9871 6.23262 21.2526 6.08366C20.9871 5.9347 20.738 5.75053 20.5108 5.52573C20.2835 5.30093 20.0974 5.05447 19.9468 4.79175C19.7962 5.05447 19.6101 5.30093 19.3829 5.52573C19.1557 5.75053 18.9065 5.9347 18.641 6.08366ZM33.7059 17.1854C34.1248 16.1156 33.914 14.9212 33.2049 14.0545C32.0278 12.6163 29.9308 12.5567 28.499 13.8107C27.3465 14.8182 25.5287 16.9281 23.6042 18.0764C22.887 18.5044 23.0266 18.7481 23.3688 18.8212C23.8725 18.9296 25.7395 17.9735 25.2167 19.0054C24.6828 19.9127 23.0567 21.164 21.7591 21.8438C20.7599 22.3665 20.8338 22.6807 21.729 22.6103C24.5213 22.3855 32.6027 20.0075 33.7059 17.1881V17.1854ZM24.806 1C34.8557 1 43 9.06019 43 19C43 28.9398 34.853 37 24.806 37C19.684 37 15.0575 34.9064 11.7505 31.5372C5.08447 30.9413 1.04654 27.87 1 24.3139C6.08917 31.437 19.9851 27.1766 25.1455 24.1324C27.0782 22.9895 26.9468 24.8556 25.5479 26.2368C23.4646 28.2979 20.8393 28.8748 21.5209 29.3488C22.2026 29.8228 27.0508 28.4361 31.2996 25.5814C38.4173 20.7984 38.7869 15.0403 36.0903 11.8255C33.5745 8.82726 27.9269 7.54619 22.4709 13.3097C18.6109 17.3858 15.3696 19.3169 12.684 20.7036C11.0853 21.5296 12.1201 21.8276 13.1138 21.8059C13.7051 21.7924 15.167 21.6488 16.2894 21.2398C18.0497 20.6007 17.8142 21.9278 16.7 22.7159C13.9734 24.6443 6.60931 27.1712 6.60931 19C6.61205 9.06019 14.7564 1 24.806 1Z" fill="url(#paint0_linear_13_2177)" stroke="url(#paint1_linear_13_2177)" stroke-miterlimit="10"/>
<path d="M49.0568 7.27273H50.3182L53.2841 14.517H53.3864L56.3523 7.27273H57.6136V16H56.625V9.36932H56.5398L53.8125 16H52.858L50.1307 9.36932H50.0455V16H49.0568V7.27273ZM59.7326 16V7.27273H64.9996V8.21023H60.7894V11.1591H64.7269V12.0966H60.7894V15.0625H65.0678V16H59.7326ZM66.4272 8.21023V7.27273H72.9727V8.21023H70.2283V16H69.1715V8.21023H66.4272ZM74.6037 16V7.27273H79.8707V8.21023H75.6605V11.1591H79.598V12.0966H75.6605V15.0625H79.9389V16H74.6037ZM89.1392 11.6364C89.1392 12.5568 88.973 13.3523 88.6406 14.0227C88.3082 14.6932 87.8523 15.2102 87.2727 15.5739C86.6932 15.9375 86.0313 16.1193 85.2869 16.1193C84.5426 16.1193 83.8807 15.9375 83.3011 15.5739C82.7216 15.2102 82.2656 14.6932 81.9332 14.0227C81.6009 13.3523 81.4347 12.5568 81.4347 11.6364C81.4347 10.7159 81.6009 9.92045 81.9332 9.25C82.2656 8.57955 82.7216 8.0625 83.3011 7.69886C83.8807 7.33523 84.5426 7.15341 85.2869 7.15341C86.0313 7.15341 86.6932 7.33523 87.2727 7.69886C87.8523 8.0625 88.3082 8.57955 88.6406 9.25C88.973 9.92045 89.1392 10.7159 89.1392 11.6364ZM88.1165 11.6364C88.1165 10.8807 87.9901 10.2429 87.7372 9.72301C87.4872 9.20312 87.1477 8.80966 86.7188 8.54261C86.2926 8.27557 85.8153 8.14205 85.2869 8.14205C84.7585 8.14205 84.2798 8.27557 83.8509 8.54261C83.4247 8.80966 83.0852 9.20312 82.8324 9.72301C82.5824 10.2429 82.4574 10.8807 82.4574 11.6364C82.4574 12.392 82.5824 13.0298 82.8324 13.5497C83.0852 14.0696 83.4247 14.4631 83.8509 14.7301C84.2798 14.9972 84.7585 15.1307 85.2869 15.1307C85.8153 15.1307 86.2926 14.9972 86.7188 14.7301C87.1477 14.4631 87.4872 14.0696 87.7372 13.5497C87.9901 13.0298 88.1165 12.392 88.1165 11.6364ZM90.9162 16V7.27273H93.8651C94.5469 7.27273 95.1065 7.3892 95.544 7.62216C95.9815 7.85227 96.3054 8.16903 96.5156 8.57244C96.7259 8.97585 96.831 9.43466 96.831 9.94886C96.831 10.4631 96.7259 10.919 96.5156 11.3168C96.3054 11.7145 95.983 12.027 95.5483 12.2543C95.1136 12.4787 94.5582 12.5909 93.8821 12.5909H91.4957V11.6364H93.848C94.3139 11.6364 94.6889 11.5682 94.973 11.4318C95.2599 11.2955 95.4673 11.1023 95.5952 10.8523C95.7259 10.5994 95.7912 10.2983 95.7912 9.94886C95.7912 9.59943 95.7259 9.29403 95.5952 9.03267C95.4645 8.77131 95.2557 8.5696 94.9688 8.42756C94.6818 8.28267 94.3026 8.21023 93.831 8.21023H91.973V16H90.9162ZM95.0241 12.0795L97.1719 16H95.9446L93.831 12.0795H95.0241ZM53.8295 24.4545C53.7784 24.0227 53.571 23.6875 53.2074 23.4489C52.8438 23.2102 52.3977 23.0909 51.8693 23.0909C51.483 23.0909 51.1449 23.1534 50.8551 23.2784C50.5682 23.4034 50.3438 23.5753 50.1818 23.794C50.0227 24.0128 49.9432 24.2614 49.9432 24.5398C49.9432 24.7727 49.9986 24.973 50.1094 25.1406C50.223 25.3054 50.3679 25.4432 50.544 25.554C50.7202 25.6619 50.9048 25.7514 51.098 25.8224C51.2912 25.8906 51.4688 25.946 51.6307 25.9886L52.517 26.2273C52.7443 26.2869 52.9972 26.3693 53.2756 26.4744C53.5568 26.5795 53.8253 26.723 54.081 26.9048C54.3395 27.0838 54.5526 27.3139 54.7202 27.5952C54.8878 27.8764 54.9716 28.2216 54.9716 28.6307C54.9716 29.1023 54.848 29.5284 54.6009 29.9091C54.3565 30.2898 53.9986 30.5923 53.527 30.8168C53.0582 31.0412 52.4886 31.1534 51.8182 31.1534C51.1932 31.1534 50.652 31.0526 50.1946 30.8509C49.7401 30.6491 49.3821 30.3679 49.1207 30.0071C48.8622 29.6463 48.7159 29.2273 48.6818 28.75H49.7727C49.8011 29.0795 49.9119 29.3523 50.1051 29.5682C50.3011 29.7812 50.5483 29.9403 50.8466 30.0455C51.1477 30.1477 51.4716 30.1989 51.8182 30.1989C52.2216 30.1989 52.5838 30.1335 52.9048 30.0028C53.2259 29.8693 53.4801 29.6847 53.6676 29.4489C53.8551 29.2102 53.9489 28.9318 53.9489 28.6136C53.9489 28.3239 53.8679 28.0881 53.706 27.9062C53.544 27.7244 53.331 27.5767 53.0668 27.4631C52.8026 27.3494 52.517 27.25 52.2102 27.1648L51.1364 26.858C50.4545 26.6619 49.9148 26.3821 49.517 26.0185C49.1193 25.6548 48.9205 25.179 48.9205 24.5909C48.9205 24.1023 49.0526 23.6761 49.3168 23.3125C49.5838 22.946 49.9418 22.6619 50.3906 22.4602C50.8423 22.2557 51.3466 22.1534 51.9034 22.1534C52.4659 22.1534 52.9659 22.2543 53.4034 22.456C53.8409 22.6548 54.1875 22.9276 54.4432 23.2741C54.7017 23.6207 54.8381 24.0142 54.8523 24.4545H53.8295ZM56.7092 31V22.2727H57.766V26.1591H62.4194V22.2727H63.4762V31H62.4194V27.0966H57.766V31H56.7092ZM72.9556 26.6364C72.9556 27.5568 72.7894 28.3523 72.457 29.0227C72.1246 29.6932 71.6687 30.2102 71.0891 30.5739C70.5096 30.9375 69.8477 31.1193 69.1033 31.1193C68.359 31.1193 67.6971 30.9375 67.1175 30.5739C66.538 30.2102 66.082 29.6932 65.7496 29.0227C65.4173 28.3523 65.2511 27.5568 65.2511 26.6364C65.2511 25.7159 65.4173 24.9205 65.7496 24.25C66.082 23.5795 66.538 23.0625 67.1175 22.6989C67.6971 22.3352 68.359 22.1534 69.1033 22.1534C69.8477 22.1534 70.5096 22.3352 71.0891 22.6989C71.6687 23.0625 72.1246 23.5795 72.457 24.25C72.7894 24.9205 72.9556 25.7159 72.9556 26.6364ZM71.9329 26.6364C71.9329 25.8807 71.8065 25.2429 71.5536 24.723C71.3036 24.2031 70.9641 23.8097 70.5352 23.5426C70.109 23.2756 69.6317 23.142 69.1033 23.142C68.5749 23.142 68.0962 23.2756 67.6673 23.5426C67.2411 23.8097 66.9016 24.2031 66.6488 24.723C66.3988 25.2429 66.2738 25.8807 66.2738 26.6364C66.2738 27.392 66.3988 28.0298 66.6488 28.5497C66.9016 29.0696 67.2411 29.4631 67.6673 29.7301C68.0962 29.9972 68.5749 30.1307 69.1033 30.1307C69.6317 30.1307 70.109 29.9972 70.5352 29.7301C70.9641 29.4631 71.3036 29.0696 71.5536 28.5497C71.8065 28.0298 71.9329 27.392 71.9329 26.6364ZM76.3178 31L73.9315 22.2727H75.0053L76.8292 29.3807H76.9144L78.7724 22.2727H79.9656L81.8235 29.3807H81.9087L83.7326 22.2727H84.8065L82.4201 31H81.3292L79.4031 24.0455H79.3349L77.4087 31H76.3178ZM86.1232 31V22.2727H91.3903V23.2102H87.18V26.1591H91.1175V27.0966H87.18V30.0625H91.4585V31H86.1232ZM93.2951 31V22.2727H96.244C96.9258 22.2727 97.4854 22.3892 97.9229 22.6222C98.3604 22.8523 98.6843 23.169 98.8945 23.5724C99.1048 23.9759 99.2099 24.4347 99.2099 24.9489C99.2099 25.4631 99.1048 25.919 98.8945 26.3168C98.6843 26.7145 98.3619 27.027 97.9272 27.2543C97.4925 27.4787 96.9371 27.5909 96.261 27.5909H93.8746V26.6364H96.2269C96.6928 26.6364 97.0678 26.5682 97.3519 26.4318C97.6388 26.2955 97.8462 26.1023 97.9741 25.8523C98.1048 25.5994 98.1701 25.2983 98.1701 24.9489C98.1701 24.5994 98.1048 24.294 97.9741 24.0327C97.8434 23.7713 97.6346 23.5696 97.3477 23.4276C97.0607 23.2827 96.6815 23.2102 96.2099 23.2102H94.3519V31H93.2951ZM97.4031 27.0795L99.5508 31H98.3235L96.2099 27.0795H97.4031Z" fill="url(#paint2_linear_13_2177)"/>
<defs>
<linearGradient id="paint0_linear_13_2177" x1="1" y1="19" x2="43" y2="19" gradientUnits="userSpaceOnUse">
<stop offset="0.26" stop-color="#971B1E"/>
<stop offset="0.51" stop-color="#B9351F"/>
<stop offset="0.83" stop-color="#E15521"/>
<stop offset="1" stop-color="#F16122"/>
</linearGradient>
<linearGradient id="paint1_linear_13_2177" x1="0.857646" y1="19" x2="43.1369" y2="19" gradientUnits="userSpaceOnUse">
<stop stop-color="#A21D21"/>
<stop offset="0.78" stop-color="#F16122"/>
</linearGradient>
<linearGradient id="paint2_linear_13_2177" x1="75.5" y1="4" x2="74" y2="26" gradientUnits="userSpaceOnUse">
<stop stop-color="#A5261F"/>
<stop offset="0.380208" stop-color="#CE4621"/>
<stop offset="0.828125" stop-color="#E85B22"/>
<stop offset="0.985431" stop-color="#CB4420"/>
</linearGradient>
</defs>
</svg>
