<svg width="71" height="52" viewBox="0 0 71 52" fill="none" xmlns="http://www.w3.org/2000/svg">
<path d="M46.5 0.524902C35.1606 0.524902 26 9.9089 26 21.5249C26 30.7769 31.8952 38.6549 40.0279 41.4749C41.0529 41.6729 41.4394 41.0159 41.4394 40.4909V36.9479C35.7375 38.1929 34.5192 34.1249 34.5192 34.1249C33.5586 31.6949 32.2144 31.0409 32.2144 31.0409C30.3577 29.7269 32.3433 29.7929 32.3433 29.7929C34.3933 29.9249 35.4798 31.9589 35.4798 31.9589C37.3394 35.1749 40.2856 34.2569 41.4394 33.7289C41.6327 32.3519 42.1423 31.4339 42.7192 30.9089C38.1711 30.3839 33.3683 28.5479 33.3683 20.5409C33.3683 18.2429 34.1356 16.4069 35.4798 14.8979C35.2894 14.3729 34.5836 12.2069 35.6731 9.3179C35.6731 9.3179 37.4009 8.7269 41.3106 11.4839C42.9808 11.0151 44.7038 10.773 46.4356 10.7639C48.1634 10.7639 49.9586 11.0249 51.5606 11.4839C55.4702 8.7929 57.1981 9.3179 57.1981 9.3179C58.2875 12.2069 57.5817 14.3729 57.3914 14.8979C58.7385 16.3379 59.5058 18.2429 59.5058 20.5379C59.5058 28.6109 54.7 30.3839 50.1519 30.9089C50.8548 31.5659 51.5606 32.8109 51.5606 34.7789V40.5569C51.5606 41.1479 51.9442 41.8019 52.9692 41.5409C61.1077 38.6519 67 30.7769 67 21.5249C67 9.9089 57.8394 0.524902 46.5 0.524902Z" fill="#fff"/>
</svg>
