<svg width="24" height="25" viewBox="0 0 24 25" fill="none" xmlns="http://www.w3.org/2000/svg">
<g id="material-symbols:settings-outline">
<path id="Vector" d="M9.24995 22.5L8.84995 19.3C8.63329 19.2167 8.42895 19.1167 8.23695 19C8.04495 18.8833 7.85762 18.7583 7.67495 18.625L4.69995 19.875L1.94995 15.125L4.52495 13.175C4.50828 13.0583 4.49995 12.9457 4.49995 12.837V12.163C4.49995 12.0543 4.50828 11.9417 4.52495 11.825L1.94995 9.875L4.69995 5.125L7.67495 6.375C7.85828 6.24167 8.04995 6.11667 8.24995 6C8.44995 5.88333 8.64995 5.78333 8.84995 5.7L9.24995 2.5H14.75L15.15 5.7C15.3666 5.78333 15.571 5.88333 15.763 6C15.955 6.11667 16.1423 6.24167 16.325 6.375L19.2999 5.125L22.0499 9.875L19.475 11.825C19.4916 11.9417 19.5 12.0543 19.5 12.163V12.837C19.5 12.9457 19.4833 13.0583 19.45 13.175L22.025 15.125L19.275 19.875L16.325 18.625C16.1416 18.7583 15.95 18.8833 15.75 19C15.55 19.1167 15.35 19.2167 15.15 19.3L14.75 22.5H9.24995ZM12.05 16C13.0166 16 13.8416 15.6583 14.525 14.975C15.2083 14.2917 15.55 13.4667 15.55 12.5C15.55 11.5333 15.2083 10.7083 14.525 10.025C13.8416 9.34167 13.0166 9 12.05 9C11.0666 9 10.2373 9.34167 9.56195 10.025C8.88662 10.7083 8.54928 11.5333 8.54995 12.5C8.54995 13.4667 8.88729 14.2917 9.56195 14.975C10.2366 15.6583 11.066 16 12.05 16ZM12.05 14C11.6333 14 11.279 13.854 10.987 13.562C10.695 13.27 10.5493 12.916 10.55 12.5C10.55 12.0833 10.696 11.729 10.988 11.437C11.28 11.145 11.634 10.9993 12.05 11C12.4666 11 12.821 11.146 13.113 11.438C13.405 11.73 13.5506 12.084 13.55 12.5C13.55 12.9167 13.404 13.271 13.112 13.563C12.82 13.855 12.466 14.0007 12.05 14ZM11 20.5H12.975L13.325 17.85C13.8416 17.7167 14.321 17.5207 14.763 17.262C15.205 17.0033 15.609 16.691 15.975 16.325L18.45 17.35L19.4249 15.65L17.275 14.025C17.3583 13.7917 17.4166 13.546 17.45 13.288C17.4833 13.03 17.5 12.7673 17.5 12.5C17.5 12.2333 17.4833 11.971 17.45 11.713C17.4166 11.455 17.3583 11.209 17.275 10.975L19.4249 9.35L18.45 7.65L15.975 8.7C15.6083 8.31667 15.2043 7.996 14.763 7.738C14.3216 7.48 13.8423 7.284 13.325 7.15L13 4.5H11.025L10.675 7.15C10.1583 7.28333 9.67928 7.47933 9.23795 7.738C8.79662 7.99667 8.39228 8.309 8.02495 8.675L5.54995 7.65L4.57495 9.35L6.72495 10.95C6.64162 11.2 6.58328 11.45 6.54995 11.7C6.51662 11.95 6.49995 12.2167 6.49995 12.5C6.49995 12.7667 6.51662 13.025 6.54995 13.275C6.58328 13.525 6.64162 13.775 6.72495 14.025L4.57495 15.65L5.54995 17.35L8.02495 16.3C8.39162 16.6833 8.79595 17.0043 9.23795 17.263C9.67995 17.5217 10.159 17.7173 10.675 17.85L11 20.5Z" fill="white"/>
</g>
</svg>
